# xmcd
#
# Track frame offsets: 
#        150
#        12238
#        29531
#        48174
#        58148
#        78131
#        90254
#        101519
#        117155
#        129125
#        143867
#        159385
#
# Disc length: 2340 seconds
#
# Revision: 1
# Processed by: cddbd v1.5.2PL0 Copyright (c) Steve Scherf et al.
# Submitted via: ExactAudioCopy v1.3
#
DISCID=8809220c
DTITLE=Junior Brown - Greatest Hits
DYEAR=2005
DGENRE=Country
TTITLE0=Highway Patrol
TTITLE1=My Wife Thinks Your Dead
TTITLE2=Sugar Foot Rag
TTITLE3=My Baby Don't Dance To Nothin' But Ernest Tubb
TTITLE4=Freeborn Man
TTITLE5=Too Many Nights In A Roadhouse
TTITLE6=Broke Down South Of Dallas
TTITLE7=Semi-Crazy
TTITLE8=Venom Wearin' Denim
TTITLE9=Joe The Singing Janitor
TTITLE10=Freedom Machine
TTITLE11=Long Walk Back To San Antone
EXTD=
EXTT0=
EXTT1=
EXTT2=
EXTT3=
EXTT4=
EXTT5=
EXTT6=
EXTT7=
EXTT8=
EXTT9=
EXTT10=
EXTT11=
PLAYORDER=
